<svg width="442" height="438" viewBox="0 0 442 438" fill="none" xmlns="http://www.w3.org/2000/svg">
<path d="M441.5 29.4221V119.349C413.409 108.604 383.463 103.438 353.363 104.145C268.471 104.145 225.135 128.43 190.644 148.615C160.236 166.31 76.7565 217.163 0.5 229.046C0.5 225.621 0.5 222.144 0.5 218.668C0.499998 160.682 23.7295 105.071 65.0798 64.0646C106.43 23.058 162.515 0.0137602 221 0L411.824 0C419.695 0 427.243 3.09982 432.808 8.61752C438.373 14.1352 441.5 21.6189 441.5 29.4221Z" fill="#0C7734"/>
<path d="M441.5 119.857V298.582C408.37 300.036 356.294 308.967 329.026 348.482C298.408 392.774 273.547 424.396 233.352 438H221C164.297 438.038 109.756 416.413 68.6977 377.612C27.6397 338.812 3.21745 285.817 0.5 229.626C76.5471 217.735 160.026 166.849 190.435 149.039C224.925 128.84 268.261 104.54 353.153 104.54C383.331 103.838 413.351 109.043 441.5 119.857Z" fill="#5FAD31"/>
<path d="M441.5 297.358V408.3C441.5 416.177 438.369 423.731 432.795 429.301C427.221 434.871 419.661 438 411.778 438H233.027C273.286 424.276 298.185 392.377 328.85 347.539C356.266 307.939 408.318 298.825 441.5 297.358Z" fill="#FBD15B"/>
</svg>
