<svg width="400" height="77" viewBox="0 0 400 77" fill="none" xmlns="http://www.w3.org/2000/svg">
<path d="M76 5.1382V20.8428C71.159 18.9664 65.9981 18.0642 60.8108 18.1876C46.1809 18.1876 38.7126 22.4286 32.7686 25.9538C27.5281 29.044 13.1417 37.9248 0 40C0 39.4019 0 38.7947 0 38.1876C-2.83792e-07 28.0612 4.00327 18.3494 11.1294 11.1881C18.2555 4.02679 27.9209 0.00240304 38 0L70.8858 0C72.2422 0 73.543 0.541344 74.5021 1.50494C75.4612 2.46854 76 3.77546 76 5.1382Z" fill="#0C7734"/>
<path d="M76 20.7208V52.3371C70.2905 52.5943 61.3159 54.1742 56.6167 61.1643C51.3401 68.9995 47.0558 74.5934 40.1287 77H38C28.228 77.0067 18.8287 73.1812 11.7529 66.3175C4.67713 59.4538 0.468313 50.079 0 40.1388C13.1056 38.0353 27.492 29.0336 32.7325 25.883C38.6765 22.3098 46.1448 18.0111 60.7747 18.0111C65.9753 17.887 71.149 18.8078 76 20.7208Z" fill="#5FAD31"/>
<path d="M76 52V71.7207C76 73.1208 75.4593 74.4637 74.4967 75.4537C73.5342 76.4438 72.2287 77 70.8675 77H40C46.952 74.5605 51.2517 68.8901 56.5471 60.9199C61.2814 53.8808 70.2701 52.2607 76 52Z" fill="#FBD15B"/>
<path d="M119.6 55.68C113.6 55.68 109.56 54.2 106.4 51.36C102.52 47.88 101.56 43.32 101.56 39.52C101.56 36.84 102.48 32.16 106.04 28.6C108.44 26.2 112.08 24.32 118.24 24.32C119.84 24.32 122.08 24.44 124.04 24.8C125.56 25.08 126.8 25.2 128.28 25.4C128.56 25.44 128.64 25.6 128.64 25.84C128.64 26.16 128.52 26.64 128.44 28.08C128.36 29.4 128.36 31.6 128.32 32.2C128.28 32.8 128.2 33.04 127.96 33.04C127.68 33.04 127.64 32.76 127.64 32.2C127.64 30.64 127 29 125.96 28.12C124.56 26.92 121.48 25.84 117.96 25.84C112.64 25.84 110.16 27.4 108.76 28.76C105.84 31.56 105.16 35.12 105.16 39.2C105.16 46.84 111.04 53.84 119.6 53.84C122.6 53.84 124.96 53.48 126.56 51.84C127.4 50.96 127.92 49.2 128.04 48.48C128.12 48.04 128.2 47.88 128.44 47.88C128.64 47.88 128.72 48.16 128.72 48.48C128.72 48.76 128.24 52.24 127.84 53.6C127.6 54.36 127.52 54.44 126.8 54.76C125.2 55.4 122.16 55.68 119.6 55.68ZM147.638 45.36H140.358C140.158 45.36 140.038 45.48 139.958 45.68L138.198 50.68C137.798 51.8 137.518 52.88 137.518 53.52C137.518 54.24 137.958 54.56 138.838 54.56C138.958 54.56 138.998 54.56 139.118 54.56C139.478 54.56 139.598 54.68 139.598 54.84C139.598 55.04 139.278 55.12 138.998 55.12C138.118 55.12 136.278 55 135.838 55C135.438 55 133.678 55.12 131.998 55.12C131.558 55.12 131.358 55.04 131.358 54.84C131.358 54.68 131.518 54.56 131.838 54.56C132.038 54.56 132.398 54.56 132.638 54.52C134.358 54.36 135.038 53.04 135.718 51.36L143.718 30.28C144.158 29.12 144.278 28.92 144.558 28.92C144.758 28.92 144.918 29.08 145.358 30.2C145.918 31.52 151.358 45.48 153.478 50.48C154.798 53.64 155.958 54.16 156.518 54.36C157.038 54.56 157.598 54.56 157.878 54.56C158.158 54.56 158.358 54.64 158.358 54.84C158.358 55.04 158.198 55.12 157.758 55.12C157.358 55.12 154.358 55.12 151.678 55.04C150.918 55 150.678 54.96 150.678 54.76C150.678 54.64 150.798 54.52 150.958 54.48C151.118 54.4 151.358 54.2 151.118 53.6L147.958 45.56C147.878 45.44 147.798 45.36 147.638 45.36ZM140.758 43.96H147.158C147.318 43.96 147.318 43.84 147.278 43.72L144.118 34.88C143.918 34.32 143.878 34.32 143.678 34.88L140.678 43.72C140.598 43.88 140.678 43.96 140.758 43.96ZM163.287 45.24V39.24C163.287 33.72 163.287 33 163.207 31.92C163.127 30.88 162.807 30.24 161.687 30C161.407 29.96 160.767 29.92 160.447 29.92C160.367 29.92 160.207 29.84 160.207 29.72C160.207 29.48 160.407 29.4 160.767 29.4C162.487 29.4 164.687 29.52 164.927 29.52C165.767 29.52 167.807 29.4 169.447 29.4C173.847 29.4 175.447 30.84 176.007 31.32C176.767 32 177.767 33.56 177.767 35.8C177.767 40.24 174.087 43.48 169.087 43.48C168.927 43.48 168.527 43.48 168.327 43.44C168.167 43.44 167.967 43.36 167.967 43.2C167.967 42.88 168.207 42.88 168.967 42.88C172.127 42.88 174.767 40.72 174.767 37.2C174.767 36.68 174.887 34.28 173.047 32.36C171.087 30.28 168.807 30.48 168.087 30.48C167.567 30.48 166.967 30.56 166.727 30.68C166.527 30.76 166.487 31.04 166.487 31.32V45.16C166.487 48.24 166.487 51.12 166.647 52.56C166.767 53.52 166.967 54.32 168.047 54.44C168.527 54.52 169.327 54.6 169.647 54.6C169.807 54.6 169.887 54.68 169.887 54.8C169.887 55 169.727 55.12 169.327 55.12C167.247 55.12 165.007 55 164.807 55C164.767 55 162.407 55.12 161.287 55.12C160.927 55.12 160.727 55.04 160.727 54.8C160.727 54.68 160.807 54.6 161.007 54.6C161.287 54.6 161.727 54.52 162.047 54.44C162.767 54.32 162.967 53.52 163.087 52.56C163.287 51.12 163.287 48.24 163.287 45.24ZM185.748 45.24V39.24C185.748 33.96 185.748 33 185.668 31.92C185.588 30.84 185.308 30.24 184.068 30C183.828 29.96 183.428 29.92 183.108 29.92C182.828 29.92 182.668 29.84 182.668 29.68C182.668 29.52 182.788 29.4 183.148 29.4C184.868 29.4 187.308 29.52 187.388 29.52C187.748 29.52 190.468 29.4 191.588 29.4C193.828 29.4 196.268 29.6 198.148 30.92C198.908 31.48 200.548 33.08 200.548 35.8C200.548 38 199.468 40.8 196.308 43.36C199.228 46.96 201.628 49.92 203.668 52.04C205.588 54 206.788 54.32 207.908 54.48C208.188 54.52 209.028 54.56 209.148 54.56C209.468 54.56 209.588 54.68 209.588 54.84C209.588 55.04 209.428 55.12 208.868 55.12H206.068C204.188 55.12 203.308 55 202.428 54.64C200.748 53.92 199.548 52.12 197.468 49.44C195.908 47.52 194.308 45.36 193.628 44.52C193.468 44.36 193.388 44.28 193.148 44.28L189.028 44.24C188.868 44.24 188.828 44.28 188.828 44.44V45C188.828 48.2 188.828 51.12 189.028 52.56C189.148 53.52 189.268 54.32 190.588 54.48C190.988 54.52 191.428 54.56 191.748 54.56C192.108 54.56 192.268 54.68 192.268 54.8C192.268 55 192.108 55.12 191.708 55.12C189.628 55.12 187.388 55 187.228 55C186.588 55 184.828 55.12 183.748 55.12C183.348 55.12 183.188 55.04 183.188 54.8C183.188 54.68 183.428 54.56 183.668 54.56C183.948 54.56 184.228 54.56 184.548 54.48C185.228 54.36 185.468 53.92 185.588 52.96C185.788 51.52 185.748 48.24 185.748 45.24ZM188.828 31.2V42.08C188.828 42.28 188.868 42.48 189.028 42.56C189.548 42.84 191.148 43.08 192.588 43.08C193.428 43.08 194.428 43.04 195.268 42.48C196.468 41.72 197.268 39.96 197.268 37.4C197.268 33.04 194.948 30.64 191.388 30.64C190.388 30.64 189.548 30.72 189.068 30.84C188.948 30.88 188.828 31 188.828 31.2ZM211.684 45.24V39.24C211.684 33.96 211.684 33 211.604 31.92C211.524 30.84 211.284 30.24 210.444 30.08C210.044 30 209.764 30 209.524 29.96C209.244 29.92 209.084 29.84 209.084 29.68C209.084 29.48 209.244 29.4 209.684 29.4C210.924 29.4 213.204 29.52 213.324 29.52C213.484 29.52 215.804 29.4 216.924 29.4C217.324 29.4 217.524 29.48 217.524 29.68C217.524 29.84 217.404 29.92 217.084 29.96C216.844 30 216.644 30 216.364 30.04C215.204 30.2 215.084 30.8 215.004 31.96C214.924 33.04 214.964 33.96 214.964 39.24V45.24C214.964 48.32 214.924 51.12 215.124 52.56C215.284 53.72 215.444 54.16 216.484 54.4C217.004 54.52 217.844 54.56 218.004 54.56C218.364 54.6 218.444 54.68 218.444 54.84C218.444 55 218.284 55.12 217.884 55.12C215.844 55.12 213.524 55 213.324 55C213.204 55 210.844 55.12 209.724 55.12C209.364 55.12 209.084 55.04 209.084 54.84C209.084 54.68 209.244 54.56 209.604 54.56C209.804 54.56 210.244 54.52 210.564 54.44C211.244 54.28 211.364 53.48 211.484 52.52C211.684 51.08 211.684 48.24 211.684 45.24ZM230.628 39.24V45.32C230.628 49.92 230.788 52.24 231.468 52.88C232.108 53.44 232.908 53.68 235.668 53.68C237.428 53.68 239.028 53.68 239.908 52.56C240.308 51.96 240.588 51.16 240.668 50.56C240.708 50.24 240.788 50.08 240.988 50.08C241.148 50.08 241.228 50.2 241.228 50.6C241.228 51 240.988 53.28 240.748 54.2C240.508 55 240.548 55.2 238.628 55.2C235.908 55.2 232.908 55 228.908 55C227.588 55 226.788 55.12 225.388 55.12C224.988 55.12 224.748 55.04 224.748 54.8C224.748 54.68 224.868 54.56 225.188 54.56C225.508 54.56 225.828 54.56 226.148 54.48C226.828 54.36 227.068 53.56 227.188 52.6C227.428 51.08 227.348 48.32 227.348 45.24V39.24C227.348 33.96 227.348 33.08 227.268 32C227.188 30.88 227.028 30.16 225.668 30C225.428 29.96 224.988 29.96 224.668 29.96C224.388 29.96 224.228 29.84 224.228 29.68C224.228 29.48 224.428 29.4 224.828 29.4C226.508 29.4 228.908 29.52 228.988 29.52C229.548 29.52 231.988 29.4 233.108 29.4C233.508 29.4 233.628 29.52 233.628 29.68C233.628 29.84 233.428 29.96 233.188 29.96C232.908 29.96 232.508 30 232.108 30.04C230.988 30.2 230.748 30.84 230.668 32C230.588 33.08 230.628 33.96 230.628 39.24ZM248.325 45.24V39.24C248.325 34 248.325 33.04 248.245 31.96C248.165 30.84 247.885 30.28 246.725 30.04C246.485 30 246.085 29.96 245.765 29.96C245.485 29.96 245.245 29.84 245.245 29.72C245.245 29.48 245.445 29.4 245.845 29.4C246.645 29.4 247.725 29.48 249.965 29.52C250.165 29.52 257.285 29.52 258.085 29.48C258.885 29.44 259.325 29.4 259.645 29.28C259.885 29.2 259.925 29.16 260.085 29.16C260.165 29.16 260.245 29.24 260.245 29.44C260.245 29.68 260.005 30.24 259.925 31.24C259.885 31.92 259.845 32.56 259.805 33.32C259.805 33.68 259.725 33.92 259.525 33.92C259.325 33.92 259.245 33.76 259.245 33.48C259.205 32.88 259.085 32.48 258.965 32.2C258.725 31.4 258.365 31.12 256.365 31C255.845 30.96 251.885 30.92 251.805 30.92C251.685 30.92 251.605 31 251.605 31.24V40.32C251.605 40.56 251.645 40.72 251.845 40.72C252.325 40.72 256.405 40.68 257.245 40.6C258.165 40.56 258.765 40.44 259.085 40C259.245 39.76 259.365 39.68 259.525 39.68C259.605 39.68 259.685 39.72 259.685 39.92C259.685 40.12 259.525 40.88 259.405 42.04C259.285 43.16 259.285 43.96 259.245 44.48C259.205 44.8 259.125 44.92 258.965 44.92C258.765 44.92 258.725 44.68 258.725 44.4C258.725 44.16 258.685 43.76 258.605 43.44C258.445 42.92 258.205 42.36 256.685 42.24C255.765 42.16 252.525 42.08 251.885 42.08C251.645 42.08 251.605 42.2 251.605 42.36V45.28C251.605 46.52 251.565 50.04 251.605 50.72C251.685 52.2 251.885 52.96 252.725 53.32C253.325 53.6 254.285 53.68 255.645 53.68C256.405 53.68 257.685 53.72 258.685 53.44C259.885 53.08 260.165 52.28 260.485 50.8C260.565 50.4 260.685 50.24 260.845 50.24C261.085 50.24 261.085 50.6 261.085 50.84C261.085 51.12 260.765 53.64 260.645 54.32C260.485 55.12 260.205 55.2 258.885 55.2C256.245 55.2 255.125 55.12 253.725 55.12C252.325 55.08 250.485 55 249.005 55C248.085 55 247.325 55.12 246.365 55.12C246.005 55.12 245.805 55.04 245.805 54.84C245.805 54.68 245.965 54.56 246.165 54.56C246.405 54.56 246.685 54.52 246.965 54.44C247.685 54.28 248.165 53.76 248.245 51.28C248.285 49.92 248.325 48.28 248.325 45.24ZM306.293 47.24V51.72C306.293 53.52 306.253 53.6 305.773 53.88C303.213 55.24 299.613 55.68 297.293 55.68C294.253 55.68 288.572 55.28 284.133 51.4C281.693 49.28 279.373 45 279.373 40C279.373 33.6 282.493 29.08 286.053 26.84C289.653 24.6 293.613 24.32 296.693 24.32C299.213 24.32 302.053 24.84 302.813 25C303.653 25.2 305.053 25.36 306.053 25.4C306.453 25.44 306.533 25.6 306.533 25.76C306.533 26.32 306.253 27.44 306.253 31.44C306.253 32.08 306.173 32.28 305.893 32.28C305.693 32.28 305.653 32.04 305.613 31.68C305.573 31.12 305.373 30 304.773 29.04C303.773 27.52 300.533 25.8 295.373 25.8C292.853 25.8 289.853 26.04 286.812 28.44C284.493 30.28 282.853 33.92 282.853 38.6C282.853 44.24 285.693 48.32 287.092 49.68C290.253 52.76 293.893 53.96 297.573 53.96C299.013 53.96 301.093 53.72 302.133 53.12C302.653 52.84 302.933 52.4 302.933 51.72V44.92C302.933 41.68 302.733 41.24 301.133 40.8C300.813 40.72 300.133 40.68 299.773 40.68C299.613 40.68 299.453 40.6 299.453 40.44C299.453 40.2 299.653 40.12 300.093 40.12C301.893 40.12 304.413 40.24 304.613 40.24C304.813 40.24 307.333 40.12 308.533 40.12C308.973 40.12 309.173 40.2 309.173 40.44C309.173 40.6 309.013 40.68 308.853 40.68C308.573 40.68 308.333 40.72 307.853 40.8C306.773 41 306.453 41.68 306.373 43.08C306.293 44.36 306.293 45.56 306.293 47.24ZM328.438 55.56C318.638 55.56 314.638 48.28 314.638 42.2C314.638 36.88 318.758 28.92 328.638 28.92C336.558 28.92 342.598 33.64 342.598 41.68C342.598 49.32 336.958 55.56 328.438 55.56ZM329.438 54.2C332.118 54.2 338.838 52.84 338.838 42.68C338.838 34.64 333.878 30.16 328.398 30.16C322.838 30.16 318.358 33.6 318.358 41.16C318.358 49 322.717 54.2 329.438 54.2ZM353.91 39.24V45.32C353.91 49.92 354.07 52.24 354.75 52.88C355.39 53.44 356.19 53.68 358.95 53.68C360.71 53.68 362.31 53.68 363.19 52.56C363.59 51.96 363.87 51.16 363.95 50.56C363.99 50.24 364.07 50.08 364.27 50.08C364.43 50.08 364.51 50.2 364.51 50.6C364.51 51 364.27 53.28 364.03 54.2C363.79 55 363.83 55.2 361.91 55.2C359.19 55.2 356.19 55 352.19 55C350.87 55 350.07 55.12 348.67 55.12C348.27 55.12 348.03 55.04 348.03 54.8C348.03 54.68 348.15 54.56 348.47 54.56C348.79 54.56 349.11 54.56 349.43 54.48C350.11 54.36 350.35 53.56 350.47 52.6C350.71 51.08 350.63 48.32 350.63 45.24V39.24C350.63 33.96 350.63 33.08 350.55 32C350.47 30.88 350.31 30.16 348.95 30C348.71 29.96 348.27 29.96 347.95 29.96C347.67 29.96 347.51 29.84 347.51 29.68C347.51 29.48 347.71 29.4 348.11 29.4C349.79 29.4 352.19 29.52 352.27 29.52C352.83 29.52 355.27 29.4 356.39 29.4C356.79 29.4 356.91 29.52 356.91 29.68C356.91 29.84 356.71 29.96 356.47 29.96C356.19 29.96 355.79 30 355.39 30.04C354.27 30.2 354.03 30.84 353.95 32C353.87 33.08 353.91 33.96 353.91 39.24ZM371.606 45.24V39.24C371.606 34 371.606 33.04 371.526 31.96C371.446 30.84 371.246 30.2 370.006 30.08C369.646 30.04 369.366 30.04 369.006 30C368.686 29.96 368.486 29.84 368.486 29.68C368.486 29.48 368.686 29.4 369.086 29.4C370.526 29.4 371.846 29.52 373.166 29.52C373.766 29.52 381.046 29.52 381.886 29.48C382.686 29.44 383.286 29.36 383.686 29.2C383.886 29.12 384.006 29.08 384.086 29.08C384.206 29.08 384.286 29.2 384.206 29.44C384.126 29.72 384.006 30.28 383.966 30.68C383.806 31.72 383.846 32.44 383.766 33.48C383.766 33.92 383.646 34.08 383.486 34.08C383.286 34.08 383.206 33.88 383.166 33.6C383.166 33.16 383.006 32.08 382.526 31.6C382.006 31.12 381.286 31.08 380.286 31.04C378.566 31 377.006 30.96 375.246 30.96C374.966 30.96 374.886 31.04 374.886 31.36V40.4C374.886 40.6 374.926 40.76 375.166 40.76C376.806 40.76 378.726 40.76 380.046 40.72C381.686 40.68 382.206 40.6 382.726 39.96C382.886 39.76 382.966 39.64 383.126 39.64C383.246 39.64 383.286 39.8 383.286 40C383.286 40.2 383.126 40.88 383.006 42.08C382.886 43.16 382.846 43.84 382.846 44.4C382.846 44.8 382.766 45 382.566 45C382.326 45 382.326 44.76 382.286 44.4C382.246 43.84 382.166 42.48 380.206 42.24C379.406 42.12 375.806 42.12 375.166 42.12C374.926 42.12 374.886 42.2 374.886 42.48V45.28C374.886 47.96 374.926 50.36 374.966 51.96C375.006 53.96 375.286 54.24 376.406 54.4C376.926 54.48 377.286 54.52 377.646 54.56C377.966 54.6 378.126 54.68 378.126 54.84C378.126 55 378.006 55.12 377.606 55.12C375.526 55.12 373.326 55 373.166 55H372.886C372.126 55.04 370.486 55.12 369.646 55.12C369.286 55.12 369.086 55.04 369.086 54.84C369.086 54.72 369.166 54.6 369.486 54.56C369.886 54.52 370.086 54.52 370.326 54.48C371.246 54.36 371.366 53.72 371.446 52.28C371.566 50.8 371.606 48.44 371.606 45.24Z" fill="#4B4B4B"/>
</svg>
