<svg width="400" height="77" viewBox="0 0 400 77" fill="none" xmlns="http://www.w3.org/2000/svg">
<path d="M76 5.1382V20.8428C71.159 18.9664 65.9981 18.0642 60.8108 18.1876C46.1809 18.1876 38.7126 22.4286 32.7686 25.9538C27.5281 29.044 13.1417 37.9248 0 40C0 39.4019 0 38.7947 0 38.1876C-2.83792e-07 28.0612 4.00327 18.3494 11.1294 11.1881C18.2555 4.02679 27.9209 0.00240304 38 0L70.8858 0C72.2422 0 73.543 0.541344 74.5021 1.50494C75.4612 2.46854 76 3.77546 76 5.1382Z" fill="#0C7734"/>
<path d="M76 20.7208V52.3371C70.2905 52.5943 61.3159 54.1742 56.6167 61.1643C51.3401 68.9995 47.0558 74.5934 40.1287 77H38C28.228 77.0067 18.8287 73.1812 11.7529 66.3175C4.67713 59.4538 0.468313 50.079 0 40.1388C13.1056 38.0353 27.492 29.0336 32.7325 25.883C38.6765 22.3098 46.1448 18.0111 60.7747 18.0111C65.9753 17.887 71.149 18.8078 76 20.7208Z" fill="#5FAD31"/>
<path d="M76 52V71.7207C76 73.1208 75.4593 74.4637 74.4967 75.4537C73.5342 76.4438 72.2287 77 70.8675 77H40C46.952 74.5605 51.2517 68.8901 56.5471 60.9199C61.2814 53.8808 70.2701 52.2607 76 52Z" fill="#FBD15B"/>
<path d="M119.88 55.68C114.4 55.68 109.8 54.48 106.16 51.32C102.24 47.88 101.2 43.4 101.2 39.52C101.2 36.8 102.04 32.08 105.88 28.56C108.76 25.92 112.56 24.32 118.52 24.32C121 24.32 122.48 24.48 124.32 24.72C125.84 24.92 127.24 25.28 128.44 25.4C128.88 25.44 128.92 25.64 128.92 25.88C128.92 26.2 128.8 26.68 128.72 28.08C128.64 29.4 128.68 31.6 128.6 32.4C128.56 33 128.48 33.36 128.12 33.36C127.8 33.36 127.72 33 127.72 32.44C127.68 31.2 127.16 29.8 126.16 28.76C124.84 27.36 121.72 26.28 118.04 26.28C114.56 26.28 112.28 27.16 110.52 28.76C107.6 31.44 106.84 35.24 106.84 39.12C106.84 48.64 114.08 53.36 119.44 53.36C123 53.36 125.16 52.96 126.76 51.12C127.44 50.36 127.96 49.2 128.12 48.48C128.24 47.84 128.32 47.68 128.64 47.68C128.92 47.68 129 47.96 129 48.28C129 48.76 128.52 52.24 128.12 53.6C127.92 54.28 127.76 54.48 127.08 54.76C125.48 55.4 122.44 55.68 119.88 55.68ZM148.387 46.68H140.467C140.307 46.68 140.227 46.76 140.147 46.96L138.387 51.32C138.067 52.16 137.867 53 137.867 53.4C137.867 54.4 139.107 54.44 139.867 54.44C140.347 54.44 140.467 54.6 140.467 54.76C140.467 55.04 140.187 55.12 139.827 55.12C138.587 55.12 137.147 55 135.907 55C135.507 55 133.507 55.12 131.667 55.12C131.227 55.12 131.027 55.04 131.027 54.76C131.027 54.56 131.227 54.4 131.507 54.4C134.027 54.16 134.587 53.68 135.507 51.36L143.987 31.32C144.707 29.44 145.107 28.68 145.547 28.68C145.867 28.68 146.067 29.04 146.467 29.92C147.147 31.88 153.067 45.52 155.307 50.64C156.587 53.64 157.587 54.16 158.427 54.32C158.787 54.4 159.387 54.4 159.747 54.4C160.187 54.4 160.347 54.56 160.347 54.76C160.347 55 160.187 55.12 159.667 55.12C157.987 55.12 153.787 55.2 151.267 55.04C150.907 55 150.667 54.92 150.667 54.72C150.667 54.56 150.827 54.48 151.027 54.4C151.387 54.28 151.667 54.16 151.427 53.68L148.707 46.92C148.667 46.76 148.547 46.68 148.387 46.68ZM141.267 44.68H147.627C147.827 44.68 147.827 44.6 147.787 44.48L144.667 36.32C144.547 36 144.427 35.92 144.267 36.32L141.107 44.48C141.067 44.6 141.107 44.68 141.267 44.68ZM164.722 45.24V39.24C164.722 34.36 164.722 33.24 164.642 32.12C164.562 31.04 164.242 30.48 163.202 30.28C162.882 30.2 162.322 30.16 161.802 30.12C161.442 30.12 161.202 30 161.202 29.76C161.202 29.52 161.442 29.4 162.002 29.4C163.802 29.4 166.242 29.52 167.162 29.52C168.642 29.52 170.682 29.4 172.322 29.4C176.762 29.4 178.362 30.64 179.282 31.52C180.042 32.24 181.002 33.6 181.002 35.96C181.002 40.36 177.082 43.76 172.122 43.76C171.962 43.76 171.522 43.76 171.322 43.72C171.162 43.64 170.882 43.56 170.882 43.32C170.882 43.08 171.162 43 171.842 43C174.002 43 176.482 40.88 176.482 37.48C176.482 36.12 176.442 33.88 174.602 32.28C173.362 31.2 171.882 31.04 171.002 31.04C170.482 31.04 170.002 31.08 169.722 31.16C169.522 31.2 169.402 31.4 169.402 31.84V45.24C169.402 48.28 169.402 50.96 169.602 52.4C169.682 53.4 169.922 54.12 170.962 54.24C171.482 54.36 172.202 54.36 172.682 54.4C173.122 54.4 173.282 54.56 173.282 54.72C173.282 54.96 173.002 55.12 172.642 55.12C170.282 55.12 167.762 55 166.962 55C166.282 55 163.762 55.12 162.362 55.12C161.922 55.12 161.682 55 161.682 54.76C161.682 54.6 161.842 54.4 162.282 54.4C162.762 54.36 163.162 54.36 163.522 54.28C164.202 54.12 164.402 53.44 164.522 52.36C164.722 50.96 164.722 48.4 164.722 45.24ZM187.573 45.24V39.24C187.573 34.04 187.573 33.28 187.493 32.2C187.413 31 187.093 30.48 186.013 30.28C185.573 30.2 185.093 30.16 184.653 30.12C184.253 30.12 184.053 30 184.053 29.76C184.053 29.52 184.293 29.4 184.813 29.4C186.613 29.4 189.053 29.52 189.733 29.52C190.813 29.52 193.653 29.4 194.853 29.4C197.253 29.4 199.613 29.64 201.413 30.8C202.533 31.52 204.013 33.24 204.013 35.56C204.013 38.12 202.813 40.4 199.333 43C202.293 46.68 204.773 49.84 206.853 51.96C208.773 54 210.093 54.16 210.733 54.32C211.093 54.36 211.373 54.36 211.653 54.4C211.973 54.4 212.133 54.56 212.133 54.72C212.133 55 211.893 55.12 211.453 55.12H208.093C205.773 55.12 204.773 54.88 203.773 54.36C202.373 53.6 201.053 52.04 199.213 49.52C197.773 47.52 196.293 45.4 195.773 44.8C195.653 44.64 195.453 44.6 195.213 44.6L192.373 44.52C192.213 44.52 192.093 44.6 192.093 44.8V45.52C192.093 48.6 192.093 50.96 192.253 52.36C192.333 53.36 192.573 54.12 193.653 54.24C194.133 54.36 194.853 54.36 195.333 54.4C195.653 54.4 195.773 54.56 195.773 54.72C195.773 54.96 195.533 55.12 195.093 55.12C192.973 55.12 190.173 55 189.653 55C189.053 55 186.613 55.12 185.213 55.12C184.773 55.12 184.533 55 184.533 54.76C184.533 54.6 184.693 54.4 185.093 54.4C185.613 54.36 186.053 54.36 186.373 54.28C187.053 54.12 187.293 53.4 187.373 52.36C187.573 50.96 187.573 48.4 187.573 45.24ZM192.093 31.8V41.84C192.093 42.16 192.173 42.32 192.413 42.4C193.133 42.68 194.173 42.8 195.093 42.8C196.373 42.8 196.933 42.64 197.533 42.2C198.533 41.48 199.493 40 199.493 37.28C199.493 32.44 196.173 31.16 194.173 31.16C193.333 31.16 192.693 31.2 192.373 31.32C192.173 31.4 192.093 31.52 192.093 31.8ZM214.292 45.24V39.24C214.292 34.04 214.292 33.24 214.212 32.12C214.132 31 213.772 30.44 213.012 30.28C212.652 30.2 212.212 30.16 211.772 30.12C211.412 30.12 211.212 30 211.212 29.72C211.212 29.52 211.452 29.4 212.012 29.4C213.412 29.4 215.812 29.52 216.692 29.52C217.492 29.52 219.852 29.4 221.212 29.4C221.692 29.4 221.892 29.52 221.892 29.72C221.892 30 221.692 30.12 221.332 30.12C220.972 30.16 220.812 30.16 220.412 30.24C219.452 30.4 219.172 31 219.092 32.16C218.972 33.24 218.972 34.04 218.972 39.24V45.24C218.972 48.44 219.012 51.04 219.172 52.48C219.252 53.4 219.532 54.12 220.572 54.24C221.092 54.36 221.572 54.36 222.092 54.4C222.532 54.4 222.692 54.6 222.692 54.76C222.692 55 222.412 55.12 222.012 55.12C219.652 55.12 217.372 55 216.532 55C215.852 55 213.452 55.12 212.052 55.12C211.572 55.12 211.332 55 211.332 54.76C211.332 54.6 211.492 54.4 211.932 54.4C212.412 54.36 212.692 54.36 213.012 54.28C213.692 54.12 214.012 53.52 214.092 52.56C214.292 51.12 214.292 48.56 214.292 45.24ZM235.301 39.32V45.24C235.301 49.44 235.301 51.8 236.021 52.4C236.581 52.96 237.461 53.2 240.261 53.2C242.101 53.2 243.461 53.16 244.381 52.32C244.861 51.88 245.301 50.96 245.421 50.12C245.501 49.8 245.541 49.48 245.821 49.48C246.101 49.48 246.141 49.76 246.141 50.16C246.141 50.6 245.821 53.32 245.541 54.28C245.301 55.08 245.141 55.2 243.381 55.2C239.821 55.2 236.581 55 232.821 55C231.381 55 229.901 55.12 228.261 55.12C227.781 55.12 227.501 55 227.501 54.76C227.501 54.6 227.701 54.44 228.101 54.4C228.541 54.36 228.941 54.36 229.221 54.28C230.061 54.08 230.301 53.44 230.421 52.12C230.581 50.72 230.581 48.16 230.581 45.24V39.24C230.581 34.04 230.581 33.24 230.501 32.16C230.421 31.04 230.141 30.52 229.061 30.28C228.781 30.2 228.301 30.16 227.861 30.12C227.461 30.12 227.221 30 227.221 29.76C227.221 29.52 227.501 29.4 228.061 29.4C229.741 29.4 231.901 29.52 232.941 29.52C233.701 29.52 236.581 29.4 237.941 29.4C238.501 29.4 238.701 29.52 238.701 29.76C238.701 30 238.501 30.12 238.021 30.12C237.621 30.16 237.141 30.16 236.701 30.28C235.741 30.44 235.461 31 235.381 32.2C235.301 33.28 235.301 34.04 235.301 39.32ZM252.222 45.24V39.24C252.222 34.04 252.222 33.12 252.142 32C252.062 30.88 251.782 30.44 250.702 30.2C250.382 30.12 249.822 30.12 249.342 30.08C248.942 30.08 248.742 29.96 248.742 29.72C248.742 29.48 248.982 29.4 249.542 29.4C251.222 29.4 252.822 29.52 254.582 29.52C255.662 29.52 262.982 29.52 263.622 29.48C264.302 29.4 264.902 29.32 265.222 29.28C265.422 29.24 265.622 29.12 265.782 29.12C265.982 29.12 266.022 29.28 266.022 29.44C266.022 29.68 265.782 30.16 265.702 31.6C265.662 32.24 265.622 32.92 265.542 33.96C265.542 34.16 265.462 34.52 265.142 34.52C264.902 34.52 264.822 34.32 264.782 33.88C264.782 33.72 264.782 33.2 264.582 32.76C264.342 32.12 264.022 31.76 262.302 31.56C261.622 31.48 258.022 31.4 257.222 31.4C257.062 31.4 256.982 31.52 256.982 31.76V40.04C256.982 40.28 257.022 40.4 257.222 40.4C258.062 40.4 261.902 40.4 262.782 40.36C263.782 40.28 264.302 40.16 264.622 39.8C264.862 39.48 265.022 39.36 265.182 39.36C265.342 39.36 265.422 39.44 265.422 39.64C265.422 39.88 265.262 40.64 265.142 42.28C265.142 42.96 265.022 44.4 265.022 44.68C265.022 44.96 264.982 45.32 264.662 45.32C264.422 45.32 264.302 44.96 264.302 44.76C264.262 44.44 264.262 44.24 264.182 43.84C263.982 43.08 263.582 42.56 262.182 42.44C261.462 42.36 258.102 42.32 257.222 42.32C257.022 42.32 256.982 42.48 256.982 42.68V45.28C256.982 46.44 256.942 49.24 256.982 50.28C257.062 52.64 257.582 53.16 261.262 53.16C262.182 53.16 263.662 53.16 264.542 52.76C265.462 52.32 265.862 51.64 266.142 50.2C266.222 49.84 266.302 49.64 266.582 49.64C266.862 49.64 266.862 49.96 266.862 50.32C266.862 51.2 266.582 53.64 266.382 54.32C266.142 55.2 265.822 55.2 264.502 55.2C261.022 55.2 258.022 55 254.462 55C253.022 55 251.582 55.12 249.902 55.12C249.422 55.12 249.182 55 249.182 54.76C249.182 54.6 249.302 54.4 249.782 54.4C250.262 54.36 250.702 54.36 251.022 54.28C251.742 54.12 251.942 53.36 252.062 52.16C252.222 50.76 252.222 48.16 252.222 45.24ZM312.028 48.04V52.44C312.028 53.52 311.988 53.6 311.508 53.88C308.908 55.24 304.988 55.68 301.868 55.68C292.068 55.68 283.388 51.04 283.388 40C283.388 33.6 286.708 29.12 290.348 26.92C294.188 24.6 297.748 24.32 301.108 24.32C303.868 24.32 307.388 24.8 308.188 24.96C309.028 25.12 310.428 25.36 311.348 25.4C311.828 25.44 311.908 25.6 311.908 25.88C311.908 26.32 311.628 27.44 311.628 32.44C311.628 33.08 311.508 33.28 311.188 33.28C310.908 33.28 310.828 33.08 310.788 32.76C310.668 31.84 310.468 30.56 309.428 29.44C308.228 28.16 305.028 26.32 300.508 26.32C298.308 26.32 295.388 26.48 292.588 28.8C290.348 30.68 288.908 33.68 288.908 38.6C288.908 47.2 294.388 53.64 302.828 53.64C303.868 53.64 305.268 53.64 306.228 53.2C306.828 52.92 306.988 52.4 306.988 51.72V47.96C306.988 45.96 306.988 44.44 306.948 43.24C306.908 41.88 306.548 41.24 305.228 40.96C304.908 40.88 304.228 40.84 303.668 40.84C303.308 40.84 303.068 40.76 303.068 40.52C303.068 40.2 303.348 40.12 303.908 40.12C305.988 40.12 308.508 40.24 309.708 40.24C310.948 40.24 313.068 40.12 314.388 40.12C314.908 40.12 315.188 40.2 315.188 40.52C315.188 40.76 314.948 40.84 314.668 40.84C314.348 40.84 314.068 40.88 313.588 40.96C312.508 41.16 312.108 41.84 312.068 43.24C312.028 44.44 312.028 46.04 312.028 48.04ZM333.484 55.56C323.444 55.56 319.284 48.32 319.284 42.28C319.284 36.28 323.284 28.92 333.804 28.92C342.604 28.92 347.964 34.32 347.964 41.64C347.964 49.44 342.484 55.56 333.484 55.56ZM334.884 53.68C337.324 53.68 342.764 52.68 342.764 42.92C342.764 35.68 338.604 30.72 332.764 30.72C328.844 30.72 324.444 32.72 324.444 41.12C324.444 48.08 328.244 53.68 334.884 53.68ZM360.223 39.32V45.24C360.223 49.44 360.223 51.8 360.943 52.4C361.503 52.96 362.383 53.2 365.183 53.2C367.023 53.2 368.383 53.16 369.303 52.32C369.783 51.88 370.223 50.96 370.343 50.12C370.423 49.8 370.463 49.48 370.743 49.48C371.023 49.48 371.063 49.76 371.063 50.16C371.063 50.6 370.743 53.32 370.463 54.28C370.223 55.08 370.063 55.2 368.303 55.2C364.743 55.2 361.503 55 357.743 55C356.303 55 354.823 55.12 353.183 55.12C352.703 55.12 352.423 55 352.423 54.76C352.423 54.6 352.623 54.44 353.023 54.4C353.463 54.36 353.863 54.36 354.143 54.28C354.983 54.08 355.223 53.44 355.343 52.12C355.503 50.72 355.503 48.16 355.503 45.24V39.24C355.503 34.04 355.503 33.24 355.423 32.16C355.343 31.04 355.063 30.52 353.983 30.28C353.703 30.2 353.223 30.16 352.783 30.12C352.383 30.12 352.143 30 352.143 29.76C352.143 29.52 352.423 29.4 352.983 29.4C354.663 29.4 356.823 29.52 357.863 29.52C358.623 29.52 361.503 29.4 362.863 29.4C363.423 29.4 363.623 29.52 363.623 29.76C363.623 30 363.423 30.12 362.943 30.12C362.543 30.16 362.063 30.16 361.623 30.28C360.663 30.44 360.383 31 360.303 32.2C360.223 33.28 360.223 34.04 360.223 39.32ZM377.144 45.24V39.24C377.144 34.04 377.144 33.16 377.064 32.08C376.984 30.92 376.704 30.36 375.584 30.16C375.304 30.08 374.744 30.04 374.224 30C373.904 30 373.624 29.96 373.624 29.72C373.624 29.48 373.904 29.4 374.464 29.4C376.144 29.4 377.784 29.52 379.544 29.52C380.784 29.52 388.304 29.52 389.064 29.48C389.744 29.44 390.224 29.44 390.584 29.32C390.784 29.28 390.944 29.12 391.144 29.12C391.264 29.12 391.384 29.28 391.384 29.44C391.384 29.68 391.224 30.16 391.104 31.04C391.064 31.44 390.984 33.32 390.944 33.88C390.904 34.2 390.824 34.4 390.584 34.4C390.344 34.4 390.264 34.24 390.224 33.84C390.224 33.56 390.224 33.04 390.024 32.56C389.744 32.04 389.064 31.6 387.704 31.52C386.464 31.48 383.304 31.44 382.224 31.4C382.024 31.4 381.904 31.52 381.904 31.84V40.16C381.904 40.4 381.944 40.48 382.144 40.48C383.144 40.52 385.464 40.48 386.744 40.44C388.784 40.44 389.304 40.44 389.784 39.8C389.984 39.56 390.064 39.44 390.264 39.44C390.384 39.44 390.464 39.56 390.464 39.76C390.464 40 390.304 41 390.184 42.04C390.104 42.76 390.064 44.36 390.064 44.64C390.064 44.96 390.064 45.28 389.744 45.28C389.504 45.28 389.424 45.04 389.424 44.76C389.424 44.56 389.344 44.16 389.224 43.8C389.064 43.2 388.544 42.6 387.344 42.48C386.424 42.4 382.824 42.36 382.144 42.36C381.984 42.36 381.904 42.48 381.904 42.72V45.4C381.904 48.64 381.904 51.04 382.104 52.48C382.184 53.48 382.424 54.2 383.504 54.36C383.984 54.44 384.744 54.44 385.224 54.48C385.664 54.48 385.864 54.6 385.864 54.76C385.864 55 385.624 55.12 385.064 55.12C382.904 55.12 380.984 55 379.544 55C378.344 55 376.064 55.12 374.824 55.12C374.344 55.12 374.104 55.04 374.104 54.76C374.104 54.6 374.224 54.48 374.624 54.48C375.144 54.44 375.584 54.44 375.944 54.36C376.664 54.2 376.864 53.44 376.984 52.4C377.144 50.84 377.144 48.52 377.144 45.24Z" fill="#4B4B4B"/>
</svg>
