<svg width="463" height="109" viewBox="0 0 463 109" fill="none" xmlns="http://www.w3.org/2000/svg">
<path d="M159.381 71.824C156.173 73.489 152.603 74.3371 148.989 74.2932C138.201 74.2932 131.009 67.6167 131.009 57.7278C130.912 54.8802 131.605 52.0613 133.009 49.5823C134.414 47.1033 136.476 45.0606 138.968 43.6796C142.286 41.8485 146.026 40.9186 149.816 40.9826C153.419 41.0299 156.99 41.6656 160.388 42.8645C159.846 45.1434 159.552 47.4744 159.513 49.8167H158.098V46.4724C158.098 44.6864 153.472 42.8765 148.989 42.8765C141.126 42.8765 135.899 48.4502 135.899 56.8768C135.899 65.8907 141.893 71.836 150.775 71.836C154.133 71.8738 157.427 70.9189 160.244 69.0911L160.664 69.5466L159.381 71.824Z" fill="#BABABA"/>
<path d="M190.547 73.3449C188.437 73.3449 186.292 73.3449 184.182 73.4888V72.1463L186.34 72.0144C187.538 71.9185 188.21 71.5949 188.21 71.0915C188.046 70.0722 187.722 69.0852 187.251 68.1668L185.141 62.9047H171.956L170.673 65.9732C169.949 67.5017 169.41 69.1113 169.067 70.7678C169.067 71.499 169.666 71.8227 171.273 71.9665L172.963 72.0983V73.4768C171.129 73.3809 169.259 73.333 167.425 73.333C165.783 73.333 164.081 73.333 162.438 73.4768V72.1463L164.129 72.0144C164.707 71.8928 165.242 71.6185 165.678 71.2201C166.115 70.8217 166.436 70.3138 166.61 69.749L176.726 46.7827C178.465 42.8871 178.968 41.3408 178.968 41.3408H180.43L191.458 67.3517C193.064 71.0555 193.568 71.9305 194.754 72.0264L196.313 72.1583V73.5367C194.431 73.4289 192.465 73.3449 190.547 73.3449ZM178.56 47.394L172.747 61.0347H184.326L178.56 47.394Z" fill="#BABABA"/>
<path d="M212.83 58.554C211.939 58.5656 211.05 58.4731 210.181 58.2783L209.725 56.6362C210.636 56.9452 211.592 57.0992 212.554 57.0917C213.471 57.1183 214.383 56.9537 215.232 56.6085C216.082 56.2632 216.85 55.7448 217.489 55.0863C218.127 54.4278 218.621 53.6436 218.939 52.7837C219.258 51.9237 219.394 51.0069 219.338 50.0915C219.338 45.7404 216.677 43.4509 211.739 43.4509C210.228 43.4592 208.724 43.6442 207.256 44.0023V67.8915C207.256 71.4875 207.484 71.8711 209.581 72.0149L211.835 72.1468V73.5252C209.593 73.4293 207.34 73.3814 205.098 73.3814C202.857 73.3814 200.663 73.3814 198.422 73.5252V72.1468L200.615 72.0149C202.725 71.8711 203.013 71.5115 203.013 67.8915V47.3466C203.013 43.9544 202.641 43.367 200.615 43.2232L198.554 43.0913V41.7129C201.347 41.8088 204.092 41.8567 206.884 41.8567C209.485 41.8567 212.051 41.7129 214.664 41.7129C220.465 41.7129 224.037 44.4099 224.037 48.8089C223.905 54.2988 219.099 58.554 212.83 58.554Z" fill="#BABABA"/>
<path d="M252.325 73.3454C251.27 73.3454 250.263 73.3454 249.22 73.4893L247.338 71.0081L238.948 59.7047C238.308 58.7879 237.603 57.9186 236.838 57.1036V56.3725H238.205C243.515 56.3725 246.847 53.7114 246.847 49.5042C246.847 45.6085 244.198 43.415 239.439 43.415C237.928 43.4216 236.424 43.6066 234.956 43.9664V67.8915C234.956 71.4875 235.184 71.8711 237.282 72.0149L239.403 72.1468V73.5252C237.162 73.4293 234.92 73.3814 232.667 73.3814C230.413 73.3814 228.232 73.3814 225.99 73.5252V72.1468L228.184 72.0149C230.293 71.8711 230.581 71.5115 230.581 67.8915V47.3466C230.581 43.7506 230.353 43.367 228.184 43.2232L226.314 43.0913V41.7129C228.963 41.8088 231.576 41.8567 234.225 41.8567C236.874 41.8567 239.679 41.7129 242.424 41.7129C248.417 41.7129 251.342 44.1821 251.342 48.5812C251.335 49.8968 251.003 51.1904 250.376 52.3469C249.749 53.5033 248.845 54.4868 247.746 55.2098C246.163 56.3002 244.371 57.0511 242.484 57.4153L252.828 70.9481C253.17 71.3499 253.599 71.6672 254.084 71.8751C254.568 72.0831 255.095 72.1761 255.621 72.1468V73.5252C254.53 73.4293 253.427 73.3454 252.325 73.3454Z" fill="#BABABA"/>
<path d="M263.268 73.3454C261.027 73.3454 258.833 73.3454 256.592 73.4893V72.1468L258.785 72.0149C260.883 71.8711 261.111 71.5115 261.111 67.8915V47.3466C261.111 43.7506 260.883 43.367 258.785 43.2232L256.592 43.0913V41.7129C258.833 41.8088 261.027 41.8567 263.268 41.8567C265.51 41.8567 267.751 41.8567 269.993 41.7129V43.0913L267.799 43.2232C265.69 43.367 265.462 43.7266 265.462 47.3466V67.8915C265.462 71.4875 265.69 71.8711 267.799 72.0149L269.993 72.1468V73.5252C267.755 73.4054 265.514 73.3454 263.268 73.3454Z" fill="#BABABA"/>
<path d="M296.855 73.3454C290.634 73.4893 291.09 73.4893 289.172 73.4893C285.576 73.4893 282.076 73.3454 278.504 73.3454C276.994 73.3454 275.483 73.3934 273.973 73.4893V72.4345L275.399 71.7033C275.813 71.4008 276.138 70.9939 276.343 70.5242C276.547 70.0545 276.623 69.5389 276.562 69.0303V47.3466C276.562 43.7506 276.334 43.367 274.237 43.2232L272.031 43.0913V41.7129C274.273 41.8088 276.478 41.8567 278.72 41.8567C280.961 41.8567 283.203 41.8567 285.444 41.7129V43.0913L283.251 43.2232C281.141 43.367 280.913 43.7266 280.913 47.3466V71.2358C282.188 71.5139 283.493 71.6347 284.797 71.5954C290.251 71.5954 294.23 71.2718 294.818 70.7683C295.354 69.8571 295.697 68.8452 295.825 67.7956L296.376 65.5062H297.838C297.359 69.9532 297.179 71.4156 296.855 73.3454Z" fill="#BABABA"/>
<path d="M324.412 73.3454L316.765 73.4893C313.241 73.3934 309.669 73.3454 306.145 73.3454C304.275 73.3454 302.393 73.3454 300.523 73.4893V72.1468L302.165 72.0149C304.323 71.8231 304.503 71.5115 304.503 67.8915V47.3466C304.503 43.7506 304.275 43.367 302.165 43.2232L299.972 43.0913V41.7129C302.669 41.8088 305.414 41.8567 308.123 41.8567C311.647 41.8567 315.207 41.8567 318.731 41.7129L324.412 41.8567C323.881 44.1348 323.635 46.4702 323.681 48.8089H322.111V45.8363C322.111 44.7815 321.979 44.6376 320.912 44.278C318.731 43.8065 316.502 43.5933 314.272 43.6427C312.482 43.5295 310.684 43.6504 308.926 44.0023V56.2166C310.939 56.3605 313.96 56.4084 316.249 56.4084C318.215 56.4084 319.078 56.2166 319.45 54.6704C319.604 53.8806 319.68 53.0777 319.678 52.2731H321.044C320.96 54.059 320.912 55.7971 320.912 57.5831C320.912 59.3691 320.912 60.9633 321.044 62.6654H319.678C319.653 61.7588 319.577 60.8544 319.45 59.9564C319.126 58.4461 318.251 58.2663 316.249 58.2663L308.926 58.4102V71.2358C310.416 71.5397 311.937 71.6604 313.457 71.5954C316.265 71.6964 319.076 71.5117 321.847 71.044C322.494 70.8163 323.046 69.4018 323.357 67.448L323.585 65.8898H325.191C324.696 68.3447 324.435 70.8412 324.412 73.3454Z" fill="#BABABA"/>
<path d="M372.934 61.5894C372.442 61.8171 372.442 61.8171 372.442 63.2795V70.9749C366.221 72.7129 363.069 73.3722 359.82 73.3722C354.874 73.4846 350.074 71.6956 346.407 68.3738C344.942 66.8408 343.795 65.0322 343.034 63.0528C342.273 61.0734 341.912 58.9626 341.972 56.8427C341.972 46.6901 349.752 40.0615 361.558 40.0615C365.328 40.0841 369.069 40.7197 372.634 41.9434C372.018 44.2094 371.708 46.5475 371.711 48.8956H370.285V46.4983C370.285 44.7603 369.086 43.7054 366.485 42.8304C364.496 42.2524 362.431 41.9776 360.36 42.0153C351.801 42.0153 346.851 47.1336 346.851 55.9677C346.851 65.485 352.616 71.5502 361.678 71.5502C364.699 71.5502 367.444 70.9149 367.947 70.0399C368.198 69.4169 368.292 68.7421 368.223 68.0741V63.2795C368.223 62.1887 367.815 61.7692 366.665 61.6853L362.853 61.3617V59.9952C364.735 60.0791 366.569 60.127 368.439 60.127C370.309 60.127 372.19 60.127 374.072 59.9952L374.252 61.1938L372.934 61.5894Z" fill="#BABABA"/>
<path d="M392.339 73.3107C383.097 73.3107 376.421 66.3944 376.421 56.7812C376.421 46.7125 383.373 40 393.801 40C403.966 40 410.367 45.9933 410.367 55.6545C410.387 58.0103 409.932 60.3461 409.029 62.5219C408.125 64.6977 406.792 66.6688 405.109 68.3173C403.425 69.9658 401.427 71.2576 399.233 72.1156C397.039 72.9736 394.694 73.3801 392.339 73.3107ZM393.034 41.8699C385.519 41.8699 381.311 46.6645 381.311 55.0551C381.311 64.8482 386.49 71.3449 394.173 71.3449C401.269 71.3449 405.476 65.9869 405.476 56.961C405.476 47.4317 400.85 41.8699 393.034 41.8699Z" fill="#BABABA"/>
<path d="M436.786 72.3892C430.553 72.533 431.021 72.533 429.091 72.533C425.495 72.533 421.995 72.3892 418.435 72.3892C416.925 72.3892 415.414 72.4372 413.904 72.533V71.4782L415.318 70.747C415.733 70.4387 416.058 70.0247 416.258 69.5482C416.458 69.0717 416.527 68.5502 416.457 68.0381V46.3544C416.457 42.7584 416.229 42.3748 414.132 42.231L411.998 42.0992V40.7207C414.24 40.8166 416.433 40.8645 418.675 40.8645C420.916 40.8645 423.158 40.8645 425.399 40.7207V42.0992L423.205 42.231C421.096 42.3748 420.808 42.7344 420.808 46.3544V70.2076C422.087 70.4863 423.395 70.607 424.704 70.5673C430.146 70.5673 434.125 70.2556 434.725 69.7522C435.252 68.8325 435.594 67.8185 435.731 66.7675L436.283 64.4901H437.745C437.29 69.009 437.098 70.4234 436.786 72.3892Z" fill="#BABABA"/>
<path d="M462.221 47.8167H460.627V44.8441C460.627 43.7893 460.483 43.5615 459.428 43.2858C457.395 42.8554 455.321 42.6425 453.243 42.6505C451.604 42.5517 449.959 42.6726 448.353 43.0101V55.2364C450.366 55.3683 453.147 55.4162 455.545 55.4162C457.558 55.4162 458.697 55.2364 458.841 53.6782L459.069 51.2809H460.447C460.351 53.0669 460.303 54.8049 460.303 56.5909C460.303 58.3769 460.303 59.9831 460.447 61.6732H459.069C459.044 60.7706 458.968 59.8702 458.841 58.9762C458.517 57.4659 457.642 57.2741 455.64 57.2741L448.317 57.418V66.8874C448.317 70.4833 448.544 70.8669 450.654 71.0108L452.848 71.1426V72.5211C450.602 72.4252 448.361 72.3772 446.123 72.3772C443.87 72.3772 441.676 72.3772 439.435 72.5211V71.1546L441.628 71.0227C443.738 70.8789 443.965 70.5193 443.965 66.8994V46.3544C443.965 42.7584 443.738 42.3748 441.628 42.231L439.435 42.0992V40.7207C442.132 40.8166 444.793 40.8645 447.49 40.8645C450.79 40.8645 454.086 40.8166 457.378 40.7207L462.952 40.8645C462.421 43.1426 462.175 45.478 462.221 47.8167Z" fill="#BABABA"/>
<path d="M110 7.32193V29.701C102.993 27.0271 95.5236 25.7415 88.0157 25.9173C66.8407 25.9173 56.0313 31.9608 47.4282 36.9841C39.8433 41.3876 19.0209 54.0428 0 57C0 56.1477 0 55.2825 0 54.4173C-4.10752e-07 39.9872 5.79421 26.1479 16.1083 15.943C26.4225 5.73817 40.4119 0.00342433 55 0L102.598 0C104.561 0 106.444 0.771415 107.832 2.14454C109.22 3.51767 110 5.38003 110 7.32193Z" fill="#0C7734"/>
<path d="M110 29.8275V74.3047C101.736 74.6665 88.7467 76.8891 81.9452 86.7226C74.3081 97.745 68.107 105.614 58.0809 109H55C40.8563 109.009 27.252 103.628 17.0108 93.9721C6.76953 84.3163 0.677821 71.128 0 57.1444C18.9687 54.1853 39.7911 41.5218 47.376 37.0896C55.9791 32.063 66.7885 26.0155 87.9634 26.0155C95.4906 25.8411 102.979 27.1364 110 29.8275Z" fill="#5FAD31"/>
<path d="M110 74V101.609C110 103.569 109.219 105.449 107.829 106.835C106.438 108.221 104.553 109 102.586 109H58C68.0417 105.585 74.2525 97.6462 81.9014 86.4879C88.7398 76.6331 101.723 74.365 110 74Z" fill="#FBD15B"/>
</svg>
