<svg id="Capa_1" data-name="Capa 1" xmlns="http://www.w3.org/2000/svg" viewBox="0 0 106.72 88.16"><defs><style>.cls-1{fill:none;stroke:#31d96b;stroke-miterlimit:10;stroke-width:5px;}.cls-2{fill:#31d96b;}</style></defs><title>logo-alba</title><path class="cls-1" d="M171.26,162.92a32,32,0,0,1-3.38-1,162.49,162.49,0,0,0-23.68-7.62,77,77,0,0,0-30.1-.8,132.12,132.12,0,0,0-26.93,7.91,10.75,10.75,0,0,1-5.72,1,6.47,6.47,0,0,1-5-8.08,10.25,10.25,0,0,1,1-2.1c2.39-3.93,4.77-7.88,7.24-11.77q17.75-27.87,35.58-55.68A16.37,16.37,0,0,1,123.69,81a5,5,0,0,1,6.5,0,14.58,14.58,0,0,1,3.69,4.21L147.82,107q5.79,9.08,11.58,18.15,8.76,13.78,17.5,27.6a5.7,5.7,0,0,1,.24,6.19A7.17,7.17,0,0,1,171.26,162.92Z" transform="translate(-73.71 -77.29)"/><circle class="cls-2" cx="53.36" cy="44.07" r="7.71"/></svg>