<svg id="Capa_1" data-name="Capa 1" xmlns="http://www.w3.org/2000/svg" viewBox="0 0 127.74 248.27"><defs><style>.cls-1{fill:#fff;}</style></defs><title>scroll-icon2</title><path class="cls-1" d="M0,95.39C0,84.2-.27,73,.11,61.8c.7-21,9.91-37.76,27-49.71C45.8-1,66.47-3.7,87.51,5.15c26,10.91,39.18,31.44,39.84,59.5.51,21.58.28,43.19,0,64.78-.35,30.44-24.21,56.9-54.34,61.36A63.8,63.8,0,0,1,1.11,139.41a69.25,69.25,0,0,1-1-12.22c-.13-10.6,0-21.2,0-31.8ZM14.38,96h-.21c0,10.29-.09,20.59,0,30.88.34,32.35,27.81,55.26,59.25,49.47,23-4.22,39.78-25.14,39.9-49.81.1-20.29.19-40.58,0-60.87-.2-19.22-8.19-34.36-24.92-44.31-31.1-18.51-72,3.11-73.92,39.27C13.84,72.34,14.38,84.16,14.38,96Z" transform="translate(0.08)"/><path class="cls-1" d="M63.86,232C68.33,227.2,72.07,223,76,219.07c3.48-3.52,7.37-3.7,10.27-.74,3.19,3.23,3.15,7-.37,10.6-5.45,5.57-11,11.09-16.58,16.49-3.93,3.78-7.09,3.8-11,0q-8.52-8.22-16.78-16.72c-3.45-3.56-3.34-7.39,0-10.58,2.89-2.79,6.65-2.58,10.06.85C55.5,223,59.27,227.11,63.86,232Z" transform="translate(0.08)"/><path class="cls-1" d="M56.59,56.63c0-3.19,0-6.39,0-9.58.08-4.59,2.92-7.71,7-7.78s7.12,3,7.18,7.55q.14,10.18,0,20.37c-.07,4.63-3,7.51-7.24,7.42-4-.09-6.78-3-6.88-7.49-.08-3.5,0-7,0-10.49Z" transform="translate(0.08)"/></svg>