<svg id="Capa_1" data-name="Capa 1" xmlns="http://www.w3.org/2000/svg" viewBox="0 0 792.27 292.43"><defs><style>.cls-1{fill:#273e71;}.cls-2{fill:#e6b54a;}</style></defs><title>boost-my-rental-logo</title><path class="cls-1" d="M135.3,64.1a30.22,30.22,0,0,1-2,10.34,39.4,39.4,0,0,1-5.51,10.12,32.63,32.63,0,0,1-8.42,7.8,20.92,20.92,0,0,1-10.78,3.41,32.28,32.28,0,0,1,12,3.4,37.14,37.14,0,0,1,10.67,8A43.77,43.77,0,0,1,139,118.74a33,33,0,0,1,3,14q0,13.13-4,22.2a38.5,38.5,0,0,1-11,14.66,42.82,42.82,0,0,1-16.29,8A79.45,79.45,0,0,1,90.82,180H14.9V19.45H87.23a89.58,89.58,0,0,1,18.64,1.87,38.09,38.09,0,0,1,15.28,6.82,33.8,33.8,0,0,1,10.33,13.64Q135.29,50.47,135.3,64.1Zm-89,20.71H85a17.46,17.46,0,0,0,14-6.4,20.68,20.68,0,0,0,3.6-6.51,22.25,22.25,0,0,0,1.23-7.17,17.89,17.89,0,0,0-1.35-6.83,18.94,18.94,0,0,0-3.59-5.74,18.48,18.48,0,0,0-5.28-4,13.9,13.9,0,0,0-6.4-1.55H46.35Zm44.47,68a16.39,16.39,0,0,0,7.64-1.86,20.74,20.74,0,0,0,6.29-5.05,25.84,25.84,0,0,0,4.27-7,20.56,20.56,0,0,0,1.57-7.79,17.46,17.46,0,0,0-6.18-13.6q-6.18-5.48-17-5.48H46.35v40.79Z" transform="translate(-14.9 -16.39)"/><path class="cls-1" d="M247.61,183.06a83.55,83.55,0,0,1-33-6.58,87.19,87.19,0,0,1-27.07-17.88,84.65,84.65,0,0,1-18.3-26.42,81.27,81.27,0,0,1,0-64.81,84.33,84.33,0,0,1,18.3-26.53A87.19,87.19,0,0,1,214.59,23a86.84,86.84,0,0,1,66.27,0,87.19,87.19,0,0,1,27.07,17.88,84.33,84.33,0,0,1,18.3,26.53,81.27,81.27,0,0,1,0,64.81,84.65,84.65,0,0,1-18.3,26.42,87.19,87.19,0,0,1-27.07,17.88A84.17,84.17,0,0,1,247.61,183.06Zm.11-137.95a49.42,49.42,0,0,0-21,4.5A56.11,56.11,0,0,0,198.18,79a52.93,52.93,0,0,0,0,41.56A58.1,58.1,0,0,0,209.73,138a55.93,55.93,0,0,0,17,12.06,51.06,51.06,0,0,0,41.92,0,56.09,56.09,0,0,0,17-12.06,58.07,58.07,0,0,0,11.54-17.43,52.81,52.81,0,0,0,0-41.56,56.3,56.3,0,0,0-11.54-17.44,57,57,0,0,0-17-12A49.42,49.42,0,0,0,247.72,45.11Z" transform="translate(-14.9 -16.39)"/><path class="cls-1" d="M543.9,158.93,561,134.37a179,179,0,0,0,25.5,14.37,65.17,65.17,0,0,0,27.51,6,44.19,44.19,0,0,0,13.48-1.86,34.2,34.2,0,0,0,9.88-4.82,20.11,20.11,0,0,0,6.07-6.8,16.12,16.12,0,0,0,2-7.57,11.94,11.94,0,0,0-3-8.22,22.69,22.69,0,0,0-8.09-5.59,66.73,66.73,0,0,0-11.9-3.73c-4.58-1-9.33-2-14.27-2.85-3.3-.59-7.11-1.28-11.46-2.09a127.7,127.7,0,0,1-13.47-3.29,82.09,82.09,0,0,1-13.7-5.48,50.39,50.39,0,0,1-12.14-8.55,39.48,39.48,0,0,1-8.64-12.28,39.9,39.9,0,0,1-3.26-16.78q0-14,5.84-23.36A43.63,43.63,0,0,1,566.25,26.8a63.53,63.53,0,0,1,20.22-7.56A111,111,0,0,1,607.92,17a115.3,115.3,0,0,1,18.42,1.32,84.06,84.06,0,0,1,15,3.84A85.26,85.26,0,0,1,655,28.55q6.62,3.86,14.26,9.11L651.72,61.78a114,114,0,0,0-22.46-12.06,62.39,62.39,0,0,0-22.69-4.17,49.54,49.54,0,0,0-9.21,1,39.66,39.66,0,0,0-9.77,3.18A23.82,23.82,0,0,0,580,55.31a11.94,11.94,0,0,0-3,8.22,10.55,10.55,0,0,0,3.59,8.12,29.1,29.1,0,0,0,9.21,5.48,85.83,85.83,0,0,0,12.36,3.73q6.74,1.55,13,3.07,4.71,1.09,11.11,2.19a126.65,126.65,0,0,1,13.26,3.07,84.24,84.24,0,0,1,13.59,5.27,46.2,46.2,0,0,1,12,8.44,39.36,39.36,0,0,1,8.53,12.72q3.25,7.57,3.26,18.31,0,12.49-4.49,21.71a40.58,40.58,0,0,1-12.81,15.25,59.65,59.65,0,0,1-19.76,9.1,98.37,98.37,0,0,1-25.39,3.07,121.79,121.79,0,0,1-22.58-1.87,99.71,99.71,0,0,1-17.85-5,97.87,97.87,0,0,1-15.28-7.57Q551.53,164.2,543.9,158.93Z" transform="translate(-14.9 -16.39)"/><path class="cls-1" d="M807.16,46.65H760.22V180H728.77V46.65H681.59V19.45H807.16Z" transform="translate(-14.9 -16.39)"/><path class="cls-1" d="M114.76,212.93v95.89H96V260.29L65.18,296.36,34.55,260.29v48.53H15.74V212.93H17l48.23,55.36,48.37-55.36Z" transform="translate(-14.9 -16.39)"/><path class="cls-1" d="M217.28,212.93q-3.76,6-8.67,13.77l-10,15.81q-5.12,8.07-10.08,15.87t-8.74,14.1v36.34H161V272.48q-8.73-15-18.54-29.77t-18.68-29.78h21.91q6,9.84,12.36,20.33t12.36,20.34c2-3.07,4-6.34,6.18-9.84s4.3-7,6.45-10.56l6.38-10.5q3.15-5.17,6-9.77Z" transform="translate(-14.9 -16.39)"/><path class="cls-2" d="M293.19,308.82H274.38v-96h44.69a37.79,37.79,0,0,1,13.79,2.43,30.66,30.66,0,0,1,10.7,6.82,31.25,31.25,0,0,1,6.94,10.49A35.13,35.13,0,0,1,353,245.86a32.73,32.73,0,0,1-5.58,19,31,31,0,0,1-14.87,11.68q12.39,16,24.49,32.27H334.58q-5.9-7.47-11.52-15.09t-11.25-15.47H293.19Zm0-46.83H319a15.77,15.77,0,0,0,5.29-1,13.82,13.82,0,0,0,4.89-3,16.53,16.53,0,0,0,3.55-5.05,16.72,16.72,0,0,0,1.4-7.08,27.56,27.56,0,0,0-.53-5,16.23,16.23,0,0,0-2.14-5.51,13.82,13.82,0,0,0-4.56-4.46,14.85,14.85,0,0,0-7.9-1.84H293.19Z" transform="translate(-14.9 -16.39)"/><path class="cls-2" d="M389.8,229.06v24h47.56v16.66H389.8v22.56h53.61v16.53H371v-96h72.42v16.26Z" transform="translate(-14.9 -16.39)"/><path class="cls-2" d="M546.06,308.82l-64.63-57.06v57.06H462.62V212.93h2l64.63,58v-58h18.81v95.89Z" transform="translate(-14.9 -16.39)"/><path class="cls-2" d="M636,229.06H607.87v79.76H589.06V229.06H560.84V212.8H636Z" transform="translate(-14.9 -16.39)"/><path class="cls-2" d="M623.32,308.82l50.25-95.89h1.88l50.25,95.89H705.28l-7.66-15.09H651.27l-7.53,15.09Zm37.08-31.09h28.08l-14-29Z" transform="translate(-14.9 -16.39)"/><path class="cls-2" d="M804.71,292.55v16.27H733.9v-96h18.81v79.75Z" transform="translate(-14.9 -16.39)"/><path class="cls-2" d="M439.57,131.54a7,7,0,0,0,1.82.34,23.2,23.2,0,0,1,17.29,12.58,21.4,21.4,0,0,1,2.37,11.64,28.88,28.88,0,0,1-2.21,8.75,78.85,78.85,0,0,1-8.48,15.33,146,146,0,0,1-10.56,13.51,4.69,4.69,0,0,1-1.76,1.45h-1a4.59,4.59,0,0,1-1.52-1.17,125,125,0,0,1-16.45-23,43.68,43.68,0,0,1-4.59-11.82,21.79,21.79,0,0,1,4.13-18.19A23.22,23.22,0,0,1,433,132a13.69,13.69,0,0,0,2.38-.45h.38c.08.09.19.06.29.07h.45c.1,0,.2,0,.28-.07h1.53c.08.09.18.06.28.07H439c.1,0,.21,0,.29-.07Z" transform="translate(-14.9 -16.39)"/><path class="cls-2" d="M437.53,166.17a11.6,11.6,0,1,1,11.86-11.56A11.76,11.76,0,0,1,437.53,166.17Z" transform="translate(-14.9 -16.39)"/><path class="cls-2" d="M437.53,162a7.43,7.43,0,1,1,7.63-7.39A7.54,7.54,0,0,1,437.53,162Z" transform="translate(-14.9 -16.39)"/><path class="cls-1" d="M523.23,102.5c-.26,2.24-.47,4.49-.78,6.72-4,29.18-19.43,50.37-45.08,64.36a80.4,80.4,0,0,1-27.32,8.89c-.31.05-.63.05-1.26.09.5-.79.85-1.39,1.24-2a86.57,86.57,0,0,0,9.21-16.95c6.13-15.53-4.6-31.57-21.34-32-15.71-.4-27.32,14.1-23.18,29,2,7.34,6,13.69,10.12,19.95l1.25,1.86c-34.62-3.77-70.81-33-74-76.52-3.38-45.81,30.14-80.92,68.56-88.32-1.8,1.72-3.29,3.17-4.8,4.58Q396,40.8,376.12,59.3a7.79,7.79,0,0,0-2.2,8.7A5.67,5.67,0,0,0,379,72c2.45.23,4.95.08,7.42.09s2.6,0,2.6,2.64v45.16q0,8.91,8.86,8.9h21.71c3.56,0,5.07-1.51,5.08-5.13q0-15.26,0-30.5c0-2.64,0-2.7,2.7-2.73q9.87-.09,19.75-.06c2.84,0,2.86.1,2.86,3.05q0,15,0,29.92c0,4.18,1.29,5.45,5.49,5.45h21.12c6,0,9-3,9-9q0-22.18,0-44.38c0-3.79-.41-3.32,3.32-3.36,1.76,0,3.52,0,5.28,0a7,7,0,0,0,6.61-4A7.4,7.4,0,0,0,499,59.8q-12-11.2-24-22.39Q464.89,28,454.85,18.58c-.18-.17-.32-.38-.79-.94,1.33.23,2.3.33,3.23.58,32.47,8.81,54,29,63.21,61.54,1.41,5,1.61,10.26,2.37,15.4.09.62.24,1.24.36,1.86Z" transform="translate(-14.9 -16.39)"/></svg>